<?xml version="1.0" encoding="utf-8"?>
<!-- Generator: Adobe Illustrator 23.0.1, SVG Export Plug-In . SVG Version: 6.00 Build 0)  -->
<svg version="1.1" xmlns="http://www.w3.org/2000/svg" xmlns:xlink="http://www.w3.org/1999/xlink" x="0px" y="0px"
	 viewBox="0 0 512 512" style="enable-background:new 0 0 512 512;" xml:space="preserve">
<style type="text/css">
	.st0{fill:#D35FE8;}
	.st1{fill:#FFFFFF;}
</style>
<g id="Слой_1">
	<circle class="st0" cx="256" cy="256" r="235.1"/>
</g>
<g id="Слой_2">
	<g>
		<path class="st1" d="M76.7,272.4c9.8-1.6,19.6-3.3,29.4-4.9c11.1-1.8,22.2-4.1,33.4-5.4c4.6-0.5,5.4,1.3,5.1,5.9
			c-0.1,1.3-1.2,1.4-2.1,1.5c-6.8,1.2-13.7,2.5-20.5,3.7c-12,2-24,4-36,6c-2.1,0.3-4.2,0.6-6.2,0.9c-1.2,0.2-1.9-0.2-2.1-1.5
			c-0.3-1.6-0.6-3.1-0.9-4.7C76.7,273.4,76.7,272.9,76.7,272.4z"/>
		<path class="st1" d="M260.6,68.3c0,0.8,0.1,1.5,0.1,2.3c0,20.9,0,41.7,0,62.6c0,3.1,0,3.1-3,3.1c-5.3,0-5.3,0-5.3-5.2
			c0-20,0-40,0-60.1c0-0.9,0.1-1.8,0.1-2.7C255.2,68.3,257.9,68.3,260.6,68.3z"/>
		<path class="st1" d="M208.4,357.4c-0.1-4,0-8-0.6-12c-0.9-6.2-4-11.2-7.6-16.1c-10.3-14.2-19-29.3-25.1-45.9
			c-3.6-9.6-5.5-19.6-6.3-29.8c-1.8-24.7,5.7-46.4,21.8-65c14.4-16.6,32.6-26.4,54.4-29.7c42.4-6.4,81.2,19.4,95.8,55.9
			c5.1,12.7,6.1,25.8,5.4,39.3c-1.3,24.4-12,45.2-24.5,65.4c-2.5,4-5.1,7.9-7.9,11.8c-5.2,7.4-7.5,15.5-7.3,24.5
			c0.1,2.9,0,5.9,0,8.8c0,1.3-0.5,1.8-1.7,2c-6.4,1.1-6.3,0.1-6.3-4.9c0-5.5,0-11,0.7-16.4c0.8-7.1,3.7-13.3,7.8-19.1
			c8.6-12.1,16.5-24.6,22.4-38.3c6.4-14.8,9.3-30.1,8.6-46.2c-0.8-18.8-8-34.8-20.4-48.5c-12.8-14.2-28.8-23-47.7-25.8
			c-27.7-4.2-51.4,4.4-70.9,24.3c-10.9,11.2-17.9,24.6-21,40c-1.6,8-1.5,16.1-0.8,24.2c1.7,20.2,10.1,37.9,20.5,54.9
			c3.9,6.4,8.2,12.6,12.5,18.8c3.5,5.2,5.4,11,5.8,17.2c0.4,5.3,0.7,10.7,0.7,16.1c0,5.3-0.2,5.4-5.4,4.8c-3-0.4-3-0.4-3-3.5
			C208.4,361.9,208.4,359.6,208.4,357.4z"/>
		<path class="st1" d="M332,246.9c0,15.8-4.3,30.6-11,44.8c-4.5,9.6-9.9,18.8-16.5,27.1c-7.2,9.2-11.3,19.6-12.4,31.2
			c0,0.4-0.2,0.9-0.2,1.3c-0.1,1.8-1,2.6-2.8,2.4c-1.4-0.1-2.8,0-4.2-0.1c-0.9,0-1.3-0.4-1.3-1.4c0.8-12.8,4.3-24.5,11.9-35
			c8.3-11.4,15.7-23.3,21.1-36.3c5.2-12.4,7.7-25.3,7-38.8c-0.8-14.8-6.8-27.4-16.3-38.4c-10.9-12.8-25.1-20-41.7-22.1
			c-33.3-4.2-65.1,18.1-72.6,50.9c-3,13.1-1.6,26.1,2.3,38.9c3.8,12.4,9.6,23.9,16.8,34.7c2.8,4.1,5.5,8.3,8.4,12.4
			c6.2,8.6,9.6,18.2,10.5,28.8c0.1,1.5,0.4,3,0.7,4.5c0.3,1.4-0.1,2-1.6,2.1c-6.1,0.4-6.3,0.4-7-5.5c-1.3-11.2-5.9-20.8-12.5-29.8
			c-11.3-15.3-19.9-31.9-24.7-50.4c-4.7-18.1-3.9-36,4.5-53c11.2-22.5,29.4-36.6,54.1-40.9c25.3-4.5,47.6,2.8,66,21
			c11.7,11.6,18.6,25.6,20.8,41.9C331.9,240.2,332,243.5,332,246.9z"/>
		<path class="st1" d="M262.8,332.6c0-5.9,0-11.9,0-17.8c0-1.5,0.4-2.8,1.3-4.1c7.5-10.9,15.1-21.7,22.1-32.9
			c0.6-0.9,1.1-1.9,1.6-2.8c0.2-0.4,0.6-0.8,0.2-1.2c-0.4-0.3-0.9,0-1.2,0.2c-1.4,0.8-2.7,1.6-4.1,2.4c-6.6,3.5-11.4,2.4-15.8-3.6
			c-1-1.4-1.6-1.6-3-0.3c-3,2.9-6.4,5.3-11,5c-3.7-0.2-6.9-1.6-9.4-4.2c-1.2-1.3-2.1-1.3-3.4-0.3c-2.7,1.8-5.6,3.3-8.9,3.9
			c-2.7,0.6-5.2,0.5-7-2.1c-0.1-0.2-0.3-0.3-0.4-0.4c-0.5-0.4-1.2-0.9-1.7-0.5c-0.7,0.6,0.1,1.1,0.5,1.6
			c6.2,9.2,12.5,18.4,18.7,27.6c1.8,2.6,3.5,5.2,5.3,7.7c0.8,1.1,1.1,2.2,1.1,3.6c0,12.3,0,24.5,0,36.8c0,2.5-0.1,2.6-2.6,2.6
			c-5.7,0.1-5.7,0.1-5.7-5.6c0-10.1-0.1-20.2,0-30.3c0-2.1-0.5-3.8-1.7-5.5c-7.5-10.9-15.1-21.8-22.1-33.1c-3-4.8-2.4-7.9,0.5-11.1
			c3.2-3.4,8.4-3.7,12.5-1c0.4,0.3,0.9,0.6,1.3,0.8c1,0.7,2,0.6,3-0.1c1-0.7,0.8-1.6,0.5-2.6c-1.1-3.7-1.3-7.4-0.5-11.2
			c0-0.1,0-0.1,0-0.2c1-4.7,5-9.4,9.3-9.2c6.5,0.2,10.9,3.4,12.3,9.3c0.8,3.5,0,6.8-1.3,10.1c-0.5,1.2-1.3,2.4-1.4,3.8
			c-0.1,1.6,0.6,2.1,2.1,1.6c3.2-1.1,4.3-2.9,3.6-6.3c-0.9-4.7-0.7-9.3,1-13.8c2.8-7.4,11.4-9.6,17.3-4.4c1.8,1.6,2.8,3.6,2.9,6
			c0.2,4.1-0.6,8-2,11.8c-0.7,1.7-1.3,3.5-1.9,5.2c-0.2,0.6-0.4,1.3,0.2,1.8c0.6,0.5,1.2,0.3,1.8,0c1.2-0.6,2.4-1.2,3.6-1.8
			c1.3-0.7,2.6-1.4,3.9-2c6.1-2.8,13.1,2,12.8,8.7c-0.1,1.3-0.6,2.5-1.2,3.6c-2.6,4.6-5.7,8.9-8.7,13.3c-5,7.4-10.1,14.8-15.1,22.1
			c-0.7,1-1,2.1-1,3.4c0,11.4,0,22.7,0.1,34.1c0,1.9-0.5,2.7-2.5,2.5c-1.3-0.1-2.6-0.1-3.8,0c-1.5,0.1-2-0.6-2-2
			C262.8,345.3,262.8,339,262.8,332.6z M246.3,257c0-0.6,0-0.7,0-0.9c0-2-0.8-3-2.4-3.1c-1.7-0.1-2.6,0.8-2.9,2.8
			c-0.5,2.9,0,5.8,0.6,8.7c0.1,0.5,0.2,1.1,0.8,1.2c0.7,0.2,1-0.4,1.3-0.9C245.3,262.2,246.2,259.5,246.3,257z M265.3,256.9
			c-0.1,2.2,0.2,4.1,0.7,6.1c0.1,0.4,0.1,1,0.7,1c0.5,0.1,0.7-0.5,0.9-0.8c1.4-2.9,2.5-5.8,2.9-9.1c0.1-0.6,0-1.3-0.1-1.9
			c-0.2-0.8-0.5-1.6-1.5-1.8c-0.9-0.2-1.4,0.4-1.9,1C265.5,253,265,255,265.3,256.9z"/>
		<path class="st1" d="M296.7,420.4c-8.9,0-17.4,0-25.9,0c-3.7,0-3.8,0.8-3.7-3.7c0-5.2-0.3-4.5,4.5-4.5c9.2,0,18.4,0,27.6,0
			c1.8,0,3.6,0.2,5.3,0.3c1.6,0.1,2.3,0.9,2.2,2.5c-0.3,4.5-1.8,8.5-4.7,11.9c-3.4,4.1-7.8,6.9-13,8.3c-1.4,0.4-2.7,1-3.6,2.1
			c-4.5,5-10.4,6.3-16.8,6.3c-7.7,0-15.3,0.1-23,0c-5-0.1-9.6-1.3-13.3-4.8c-2.1-2-4.8-3.1-7.5-4.1c-6.8-2.4-11.6-7-14.5-13.6
			c-1-2.2-1.2-4.5-1.3-6.9c-0.1-1.4,0.4-2.1,2-2.1c9.1,0,18.1,0,27.2,0c1.6,0,2.1,0.6,1.7,2.1c-0.1,0.2-0.1,0.5-0.1,0.8
			c-0.2,1.6,0.5,3.5-0.6,4.6c-1.1,1-3.1,0.4-4.6,0.6c-4.2,0.4-8.4,0-12.6,0.5c-0.3,0-0.6,0-1,0.1c-0.5,0.1-1.3,0-1.5,0.6
			c-0.2,0.6,0.5,1,0.9,1.3c2.9,2.3,6.1,4.1,9.7,4.7c2.8,0.5,5.1,1.4,6.7,4.1c2.1,3.4,5.7,3.9,9.3,3.9c8.9,0.2,17.7,0.4,26.6-0.3
			c3-0.2,4.8-1.9,6.3-4.2c1.3-2,3.1-2.9,5.5-3.2C289.2,427.1,293.3,424.6,296.7,420.4z"/>
		<path class="st1" d="M258.1,371.3c15.1,0,30.1,0,45.2,0c3.4,0,3.4,0,3.4,3.3c0,2.3,0,4.6,0,6.9c0,1.2-0.5,1.8-1.7,1.7
			c-1.5,0-3.1,0.1-4.6-0.2c-0.8-0.2-1.6-0.4-1.8-1.2c-0.3-1.4-1.3-1.5-2.4-1.6c-7.9-0.7-15.8-0.3-23.7-0.4
			c-16.2-0.1-32.4,0-48.6,0.1c-1.1,0-2.3,0.2-3.4,0.2c-1.6,0.1-3.1,0.2-3.5,2.1c-0.1,0.6-0.9,0.7-1.4,0.8c-5.4,1.3-6.5,0.4-6.5-5
			c0-1.6,0-3.2,0-4.8c0-1.4,0.6-2,1.9-1.9c2,0,4,0,5.9,0C230.5,371.3,244.3,371.3,258.1,371.3z"/>
		<path class="st1" d="M344.5,177.7c-1,0-5.1-5.2-4.7-6.1c0.2-0.5,0.7-0.9,1.1-1.3c12.5-10.9,25.1-21.7,37.9-32.3
			c3.5-2.9,7.2-5.7,10.7-8.7c1.2-1,2.1-1,3.2,0.2c3.9,4.1,3.9,4-0.3,7.7c-15.5,13.1-30.9,26.3-46.4,39.4
			C345.5,177,345.1,177.5,344.5,177.7z"/>
		<path class="st1" d="M172.5,172.1c-0.4,1.2-1.3,2.2-2.2,3.2c-2.6,2.9-1.7,3.3-5.2,0.4c-14.8-12.7-29.6-25.3-44.3-38
			c-0.5-0.4-1-0.8-1.4-1.3c-0.8-1-2.6-1.5-2.3-3c0.5-2,1.9-3.6,3.5-4.9c0.9-0.7,1.6,0.2,2.2,0.7c5.6,4.6,11.1,9.2,16.7,13.8
			c10.1,8.5,20.1,17.1,30.2,25.7c0.8,0.7,1.5,1.4,2.3,2.1C172.2,171,172.6,171.4,172.5,172.1z"/>
		<path class="st1" d="M371.4,262c4.6,0.7,9.8,1.5,15,2.4c15.5,2.6,31,5.3,46.5,8c2.3,0.4,2.5,0.7,2.2,3c-0.8,5.3-0.8,5.4-6.2,4.5
			c-19.5-3.3-39.1-6.3-58.6-10c-2.7-0.5-3.2-1.1-2.9-3.7C367.8,263,368.6,261.9,371.4,262z"/>
		<path class="st1" d="M287.8,391.4c5.6,0,11.1,0,16.7,0c1.6,0,2.3,0.4,2.2,2.2c-0.1,4.5-0.1,9.1,0,13.6c0,1.6-0.5,2.2-2.1,2.1
			c-1.3-0.1-2.7-0.1-4,0c-1.7,0.1-2.3-0.7-2.2-2.3c0.1-1.8-0.1-3.6,0-5.4c0.1-1.5-0.5-2-2-2c-8.2,0.1-16.5,0-24.7,0
			c-2.8,0-2.8,0-2.8-2.9c0-5.4,0-5.4,5.3-5.4C278.7,391.4,283.3,391.4,287.8,391.4z"/>
		<path class="st1" d="M223.2,391.4c4,0,8,0,12.1,0c1.5,0,2.1,0.5,2,2c-0.1,1.4-0.1,2.8,0,4.2c0.1,1.6-0.6,2.1-2.2,2.1
			c-5.1-0.1-10.2,0.1-15.3-0.1c-1.9,0-2.7,0.5-2.5,2.5c0.1,1.7,0,3.4,0,5.2c0,1.3-0.4,2-1.9,2c-1.6-0.1-3.2,0-4.8,0
			c-1.2,0-1.8-0.5-1.8-1.7c0-4.8,0-9.6,0-14.4c0-1.3,0.6-1.8,1.9-1.8C214.9,391.5,219,391.4,223.2,391.4z"/>
		<path class="st1" d="M117.5,212.9c-3.2-0.5-6.6-1.4-9.9-2.8c-0.9-0.4-1.2-1-0.9-2c0-0.1,0-0.1,0.1-0.2c2.1-7.1,0.5-5.9,7.2-4.3
			c2,0.5,4,1.1,6.1,1.6c1.1,0.3,1.5,0.9,1.1,2c-0.5,1.5-0.9,3-1.5,4.5C119.3,212.5,118.8,213.1,117.5,212.9z"/>
		<path class="st1" d="M182.9,83.1c1.1-0.2,1.5,0.3,1.8,0.9c1.8,2.8,3.3,5.9,4.4,9.1c0.2,0.6,0.3,1.3-0.2,1.8
			c-1.7,1.5-3.7,2.2-5.8,2.8c-0.6,0.2-0.9-0.4-1.1-0.9c-1.5-3.2-3-6.3-4.5-9.5c-0.2-0.5-0.5-1.1,0.2-1.5
			C179.5,84.6,181.3,83.6,182.9,83.1z"/>
		<path class="st1" d="M194.2,120.9c-0.7,0.1-1.2-0.4-1.6-1.2c-1.3-2.9-2.7-5.8-4-8.7c-0.4-0.9-0.1-1.4,0.7-1.8
			c0.9-0.4,1.7-0.9,2.5-1.3c3.6-1.7,3.1-2.4,5.2,1.9c1.1,2.3,2.1,4.7,3.1,7c0.6,1.3,0.3,2.2-1,2.8
			C197.6,120.2,196.1,120.8,194.2,120.9z"/>
		<path class="st1" d="M402.1,202.9c1.1-0.1,1.9,0.4,2.3,1.5c0,0.1,0.1,0.1,0.1,0.2c1.6,5,1.6,5.3-3.1,6.7c-2.2,0.7-4.4,1.2-6.6,1.9
			c-1.4,0.4-2.1-0.1-2.5-1.5c-0.3-1.5-0.8-3.1-1.1-4.6c-0.2-0.7-0.2-1.4,0.7-1.7C392.8,205,401.1,202.9,402.1,202.9z"/>
		<path class="st1" d="M376.1,209.9c1.4,0,2.2,0.4,2.7,1.4c0.7,1.5,1,3.1,1.4,4.8c0.2,0.8-0.3,1.2-1,1.4c-3.4,0.9-6.7,1.9-10.1,2.8
			c-1,0.3-1.6,0-1.9-1c-0.5-1.7-0.9-3.4-1.4-5.2c-0.2-0.7,0-1.3,0.7-1.6C369.8,211.4,373.1,210.5,376.1,209.9z"/>
		<path class="st1" d="M81.4,201.5c0.2-1.8,0.7-3.5,1.3-5.2c0.3-0.9,0.8-1,1.6-0.8c3.3,0.9,6.5,1.7,9.7,2.8c1.1,0.4,1.6,1,1.3,2.2
			c-0.4,1.6-0.9,3.2-1.2,4.8c-0.2,1-0.9,1.2-1.7,0.9c-3.1-0.9-6.2-1.8-9.4-2.8C82.1,203.2,81.2,202.7,81.4,201.5z"/>
		<path class="st1" d="M135.9,209.9c2.9,0.7,6.1,1.3,9.1,2.4c1.2,0.5,1.7,1.3,1.2,2.6c-0.4,1.3-0.7,2.7-1.1,4
			c-0.3,1.2-1,1.7-2.3,1.3c-3.1-0.9-6.1-1.7-9.2-2.5c-0.3-0.1-0.7-0.2-0.8-0.4c-1.5-1.9-0.2-3.6,0.3-5.4
			C133.7,210.1,134.3,209.8,135.9,209.9z"/>
		<path class="st1" d="M334.8,86.7c-0.1,0.3-0.3,0.7-0.5,1.1c-1.3,2.8-2.7,5.6-3.9,8.5c-0.5,1.2-1.1,1.5-2.3,1
			c-7-2.8-5.6-2.6-3.6-7.9c0.7-1.9,1.7-3.7,2.8-5.4c0.6-0.9,1.4-1.2,2.4-0.7c1.4,0.7,2.8,1.4,4.3,2.2
			C334.5,85.6,335,85.9,334.8,86.7z"/>
		<path class="st1" d="M312.4,134.6c-0.1,0.2-0.1,0.5-0.3,0.9c-1.3,3-2.6,5.9-3.9,8.9c-0.4,1-1.1,1.3-2.1,0.9
			c-1.5-0.6-2.9-1.3-4.4-1.9c-1.1-0.4-1.4-1.1-1-2.2c1.3-3.2,2.7-6.3,4.4-9.3c0.5-0.9,1.1-1.2,2-0.8c1.5,0.7,3,1.4,4.5,2.2
			C312.1,133.4,312.5,133.7,312.4,134.6z"/>
		<path class="st1" d="M318,121c-0.8-0.1-1.1-0.2-1.5-0.2c-5.1-1.2-5.5-1.8-3.3-6.6c1-2.2,2-4.4,2.9-6.6c0.5-1.1,1-1.3,2.1-0.7
			c1.5,0.9,3,1.6,4.6,2.4c0.9,0.4,1.2,1,0.8,2c-1.3,2.8-2.6,5.7-3.9,8.5C319.2,120.6,318.5,121.1,318,121z"/>
		<path class="st1" d="M354.8,309c0.1,0.1,0.4,0.1,0.6,0.2c3.1,1.7,5.9,3.9,8.8,5.8c0.7,0.5,0.7,1,0.3,1.7c-1,1.5-1.9,3-2.9,4.5
			c-0.5,0.8-1.2,0.8-2,0.4c-3.1-1.8-6-3.8-8.9-6c-0.5-0.4-0.9-0.9-0.5-1.6c1-1.6,2.1-3.2,3.5-4.5C353.9,309.1,354.2,308.9,354.8,309
			z"/>
		<path class="st1" d="M211.6,141.5c0.2,1.2-0.2,1.5-0.8,1.8c-1.6,0.7-3.3,1.4-4.9,2.1c-0.9,0.4-1.4,0.1-1.8-0.7
			c-1.4-3.2-2.7-6.3-4.1-9.5c-0.4-0.8-0.2-1.4,0.6-1.9c4.8-3.3,5.7-3.1,8.3,2.1C209.9,137.4,211,139.6,211.6,141.5z"/>
		<path class="st1" d="M126,331.4c-0.1-1,0.2-1.5,0.7-1.8c2.4-1.7,4.8-3.3,7.2-4.9c1.6-1.1,2.8-0.7,4,0.7c3.4,4,3.4,4.2-0.8,7
			c-1.8,1.2-3.6,2.4-5.4,3.5c-1.3,0.8-2.4,0.7-3.3-0.6C127.5,333.9,126.3,332.7,126,331.4z"/>
		<path class="st1" d="M386.4,330.9c0,1.1-2.8,5-3.8,5.4c-0.7,0.3-1.3,0.1-1.8-0.3c-2.7-1.6-5.3-3.3-7.7-5.2c-1-0.8-1.2-1.7-0.6-2.8
			c2.6-5,3-5.2,7.8-2c1.7,1.2,3.5,2.4,5.2,3.6C385.9,329.9,386.5,330.2,386.4,330.9z"/>
		<path class="st1" d="M118.7,344.2c0.1,0.7-0.4,0.9-0.7,1.2c-2.9,1.9-5.8,3.9-8.7,5.8c-0.9,0.6-1.6,0.5-2.3-0.4
			c-3.7-4.6-3.7-5.2,1-8.5c1.5-1.1,3-2.1,4.5-3.2c1.2-0.8,2.1-0.6,3,0.5C116.8,341.1,117.8,342.7,118.7,344.2z"/>
		<path class="st1" d="M397.9,338.6c0.2,0,0.2,0,0.3,0.1c3.3,1.9,6.6,3.9,9.6,6.2c0.3,0.3,0.4,0.7,0.2,1c-0.1,0.2-0.2,0.5-0.3,0.7
			c-2.6,5.8-2.9,5.9-8.2,2.4c-1.7-1.1-3.4-2.3-5.1-3.4c-1.1-0.7-1.2-1.4-0.4-2.3c0.9-1.2,1.7-2.5,2.6-3.8
			C397,339,397.4,338.5,397.9,338.6z"/>
		<path class="st1" d="M157.3,309.1c1.2,0.1,1.8,0.8,2.4,1.5c3.5,4,3.4,4.2-0.8,7c-2,1.3-4,2.5-5.9,3.8c-0.9,0.6-1.7,0.5-2.3-0.5
			c0-0.1-0.1-0.1-0.1-0.2c-3.6-4.6-3.6-4.7,1-8.2c1.3-1,2.7-1.9,4.1-2.8C156.1,309.5,156.8,309.3,157.3,309.1z"/>
		<path class="st1" d="M430.9,200.9c0,1.1-0.5,1.8-1.5,2.3c-2.9,1.4-6.1,2.5-9.3,2.8c-2.6,0.2-2.5-2.9-3.2-4.7
			c-0.5-1.3-0.3-2.5,1.4-3c1.7-0.5,3.3-1,4.9-1.5c0.6-0.2,1.2-0.4,1.8-0.5c1.2-0.2,2.4-1.1,3.7-0.6
			C429.4,195.9,430.9,199.9,430.9,200.9z"/>
	</g>
</g>
</svg>
